<svg xmlns="http://www.w3.org/2000/svg" width="154.216" height="37.225" viewBox="0 0 154.216 37.225"><path d="M16.603 9.159h7.227v3.348c.879-2.56 2.832-3.841 5.958-3.841l1.66.1-1.172 6.894a21.53 21.53 0 0 0-2.149-.2 3.743 3.743 0 0 0-3.027.985 4.07 4.07 0 0 0-.977 1.773 7.054 7.054 0 0 0-.293 2.265v9.06h-7.227zm25.979-.3v5.81h-.1a3.38 3.38 0 0 0-2.832 1.28 5.023 5.023 0 0 0-1.074 3.447 4.713 4.713 0 0 0 1.074 3.447 3.517 3.517 0 0 0 2.93 1.378v5.712a8.252 8.252 0 0 1-2.246.3 7.482 7.482 0 0 1-6.248-3.048 13.036 13.036 0 0 1 0-15.461 7.92 7.92 0 0 1 6.348-3.053 14.521 14.521 0 0 1 2.148.192zm-42.583.3h3.029V4.136h7.23v5.023h4.688v6.007h-4.688v6.007c0 .788.1 1.477.1 1.871a1.829 1.829 0 0 0 .879 1.083 3.1 3.1 0 0 0 1.758.492 6.518 6.518 0 0 0 1.758-.3l.879 4.727a17.542 17.542 0 0 1-2.735.886 20.392 20.392 0 0 1-2.539.2c-2.344 0-4.1-.492-5.079-1.477a7.533 7.533 0 0 1-1.855-2.757 9.079 9.079 0 0 1-.391-3.25v-7.485H0zm42.583 20.779v-5.712a3.462 3.462 0 0 0 2.833-1.378 4.715 4.715 0 0 0 1.074-3.447 5.025 5.025 0 0 0-1.074-3.447 4 4 0 0 0-2.833-1.28v-5.81a6.408 6.408 0 0 1 2.833 1.674c.2.3.39.689.684 1.182V9.159h7.325v20.385h-7.325v-2.559a5.527 5.527 0 0 1-3.517 2.953zm33.5-11.916a9.091 9.091 0 0 0-.1 1.674 9.637 9.637 0 0 0 .1 1.674zm0-8.863v.3l-8.2 20.09H62.12l-8.3-20.385h7.618l2.735 8.075a3.356 3.356 0 0 0 .293.788c0 .2.1.492.2 1.083a8.262 8.262 0 0 1 .2 1.28 4.093 4.093 0 0 1 .1 1.182l.391-2.56.488-1.773 2.735-8.075zm0 .3l.1-.3h-.1zm10.548-.886V13.3a3.981 3.981 0 0 0-2.539 1.083 4.842 4.842 0 0 0-1.27 2.856h3.809v3.939h-3.809a4.909 4.909 0 0 0 1.368 2.954 3.634 3.634 0 0 0 2.441.985v5.121a10.589 10.589 0 0 1-7.618-2.856 10.011 10.011 0 0 1-2.93-6.008v-3.348A10.465 10.465 0 0 1 86.63 8.572zm28.812 10.241l-7.325-9.651h8.693l2.051 3.25a5.6 5.6 0 0 1 .976 2.659 15.567 15.567 0 0 1 .293-1.576 4.02 4.02 0 0 1 .586-1.083l2.051-3.25h8.691l-7.325 9.651 8.106 10.734h-8.692l-2.735-3.939a8.167 8.167 0 0 1-.977-2.757c-.2.591-.293 1.083-.39 1.378a7.423 7.423 0 0 1-.782 1.379l-2.637 3.939h-8.692zM99.913.005h7.227v29.544h-7.227zM86.63 21.178v-3.939h3.809a3.9 3.9 0 0 0-.977-2.856 3.591 3.591 0 0 0-2.637-1.083h-.2V8.573h.2a10.039 10.039 0 0 1 7.618 3.151 11.226 11.226 0 0 1 2.93 8.075v1.379zm0 9.06v-5.121h.293a4.293 4.293 0 0 0 2.344-.689 5.669 5.669 0 0 0 1.758-1.97l5.762 2.068-.293.591a9.192 9.192 0 0 0-.977 1.576 9.129 9.129 0 0 1-3.223 2.364 12.7 12.7 0 0 1-5.469 1.182zm56.647-21.37v5.81a3.759 3.759 0 0 0-2.832 1.379 4.908 4.908 0 0 0-1.172 3.447 5.666 5.666 0 0 0 1.074 3.545 4.471 4.471 0 0 0 2.93 1.28v5.613a5.4 5.4 0 0 1-3.519-3.057v10.34h-7.227V9.159h7.227v2.757a5 5 0 0 1 3.52-3.053zm0 21.074v-5.617h.1a4.044 4.044 0 0 0 2.93-1.28 5.569 5.569 0 0 0 1.074-3.446 5.166 5.166 0 0 0-1.172-3.545 3.462 3.462 0 0 0-2.832-1.379h-.1v-5.81a7.606 7.606 0 0 1 2.149-.2 7.983 7.983 0 0 1 6.348 2.954c1.66 1.871 2.442 4.432 2.442 7.681a11.862 11.862 0 0 1-2.441 7.885 7.843 7.843 0 0 1-6.446 3.053 7.371 7.371 0 0 1-2.051-.3z" fill="#d9243d" fill-rule="evenodd"/></svg>